<?xml version="1.0" standalone="no"?>
<!DOCTYPE svg PUBLIC "-//W3C//DTD SVG 20010904//EN"
 "http://www.w3.org/TR/2001/REC-SVG-20010904/DTD/svg10.dtd">
<svg version="1.0" xmlns="http://www.w3.org/2000/svg"
 width="512.000000pt" height="512.000000pt" viewBox="0 0 512.000000 512.000000"
 preserveAspectRatio="xMidYMid meet">

<g transform="translate(0.000000,512.000000) scale(0.100000,-0.100000)"
fill="#000000" stroke="none">
<path d="M2066 4885 c-75 -129 -136 -240 -136 -248 0 -21 36 -49 137 -107 51
-29 91 -55 89 -59 -2 -3 -433 -751 -958 -1661 -526 -910 -970 -1683 -987
-1718 -70 -140 -91 -349 -51 -508 126 -490 652 -725 1105 -491 62 32 101 62
175 137 l95 96 304 529 c168 292 409 710 536 930 127 220 429 742 670 1160
241 418 439 761 439 762 1 1 49 -24 106 -57 109 -63 138 -71 162 -42 35 39
281 478 281 500 0 13 -4 27 -9 32 -5 5 -387 227 -849 494 l-839 486 -67 0 -67
0 -136 -235z m758 -791 c253 -147 462 -267 463 -268 3 -2 -857 -1490 -866
-1499 -4 -4 -45 24 -92 63 -104 87 -197 136 -370 196 -203 70 -305 128 -426
240 l-42 39 45 75 c25 41 49 81 53 89 6 10 40 -5 150 -69 78 -45 144 -80 147
-77 10 10 84 139 84 147 0 4 -46 33 -102 65 -57 32 -120 69 -141 82 l-38 24
37 67 c20 37 39 70 43 74 3 4 40 -12 81 -36 l75 -44 42 72 c23 39 42 76 42 81
0 6 -31 28 -70 49 -38 22 -68 45 -67 50 7 27 74 136 83 136 6 0 71 -36 145
-79 154 -91 134 -93 198 20 l32 57 -144 83 -144 83 26 46 c15 26 86 148 157
273 72 125 132 227 134 227 1 0 211 -120 465 -266z"/>
<path d="M4503 3783 c-160 -207 -276 -421 -319 -590 -21 -82 -25 -116 -22
-209 3 -104 5 -114 41 -186 165 -335 667 -284 763 77 47 174 -14 418 -168 673
-65 108 -214 312 -228 312 -4 0 -34 -35 -67 -77z"/>
</g>
</svg>
