<?xml version="1.0" encoding="iso-8859-1"?>
<!-- Uploaded to: SVG Repo, www.svgrepo.com, Generator: SVG Repo Mixer Tools -->
<svg fill="#000000" height="800px" width="800px" version="1.1" id="Layer_1" xmlns="http://www.w3.org/2000/svg" xmlns:xlink="http://www.w3.org/1999/xlink" 
	 viewBox="0 0 512 512" xml:space="preserve">
<g>
	<g>
		<path d="M429.582,429.802c-85.543-148.137-62.839-108.815-92.181-159.642V119.176h11.291c9.858,0,17.851-7.992,17.851-17.851
			s-7.992-17.851-17.851-17.851H163.31c-9.858,0-17.851,7.992-17.851,17.851s7.992,17.851,17.851,17.851h11.291V270.16
			c-28.884,50.032-10.507,18.204-92.185,159.65C61.348,466.334,87.66,512,129.879,512h252.244
			C424.359,512,450.648,466.326,429.582,429.802z M210.303,274.943V119.177h91.397v155.765c0,6.189,1.94,8.141,12.436,26.324
			H197.867C208.597,282.678,210.303,280.999,210.303,274.943z M185.12,431.218c-8.545,0-15.472-6.927-15.472-15.472
			c0-8.545,6.927-15.472,15.472-15.472c8.544,0,15.472,6.927,15.472,15.472C200.592,424.291,193.664,431.218,185.12,431.218z
			 M256,445.77c-16.582,0-30.025-13.443-30.025-30.025c0-16.582,13.443-30.025,30.025-30.025c16.582,0,30.025,13.443,30.025,30.025
			S272.582,445.77,256,445.77z M326.882,431.218c-8.545,0-15.472-6.927-15.472-15.472c0-8.545,6.927-15.472,15.472-15.472
			s15.472,6.927,15.472,15.472C342.354,424.291,335.426,431.218,326.882,431.218z"/>
	</g>
</g>
<g>
	<g>
		<circle cx="213.28" cy="30.025" r="15.471"/>
	</g>
</g>
<g>
	<g>
		<circle cx="284.159" cy="30.025" r="30.025"/>
	</g>
</g>
</svg>