<?xml version="1.0" encoding="iso-8859-1"?>
<!-- Uploaded to: SVG Repo, www.svgrepo.com, Generator: SVG Repo Mixer Tools -->
<svg height="800px" width="800px" version="1.1" id="Capa_1" xmlns="http://www.w3.org/2000/svg" xmlns:xlink="http://www.w3.org/1999/xlink" 
	 viewBox="0 0 285.999 285.999" xml:space="preserve">
<g>
	<path style="fill:#030104;" d="M123.531,37.27c1.103,0.553,2.008,0.917,2.693,1.086c0.69,0.167,2.211,0.326,4.559,0.464
		c1.578,0.067,2.692,0.446,3.307,1.135c0.622,0.695,1.003,1.867,1.142,3.528c0.827,0,1.462,0.03,1.911,0.1
		c0.451,0.073,0.947,0.208,1.504,0.413c0.624-0.277,1.312-0.413,2.067-0.413c0.626,0,1.283,0.177,1.969,0.52
		c0.209-0.07,0.348-0.141,0.413-0.213c0.625-0.274,1.145-0.406,1.554-0.406c0.688,0,1.242,0.172,1.654,0.513
		c0.688-0.483,1.349-0.722,1.969-0.722c0.209,0,0.418,0.032,0.621,0.104l0.203,0.105c0.352-1.729,0.813-2.955,1.4-3.682
		c0.594-0.723,1.607-1.12,3.057-1.186c2.002-0.141,3.447-0.295,4.348-0.465c0.898-0.174,1.865-0.503,2.902-0.991
		c2.203-1.033,3.961-2.585,5.275-4.654c1.309-2.072,1.971-4.417,1.971-7.039c0-3.522-0.709-6.855-2.125-9.991
		c-1.414-3.142-3.33-5.868-5.748-8.184c-2.416-2.311-5.174-4.104-8.281-5.382C148.791,0.636,145.65,0,142.473,0
		c-3.38,0-6.643,0.654-9.779,1.965c-3.143,1.311-5.954,3.121-8.435,5.433c-2.485,2.315-4.417,5.009-5.799,8.078
		c-1.387,3.069-2.075,6.301-2.075,9.676C116.385,30.817,118.769,34.852,123.531,37.27z M150.086,20.549
		c1.482-1.483,3.26-2.228,5.332-2.228c2.068,0,3.807,0.744,5.23,2.228c1.41,1.483,2.117,3.226,2.117,5.227
		c0,2.071-0.724,3.798-2.168,5.178c-1.455,1.38-3.213,2.072-5.289,2.072c-2.064,0-3.821-0.712-5.273-2.125
		c-1.449-1.415-2.176-3.12-2.176-5.125C147.859,23.774,148.601,22.032,150.086,20.549z M142.063,30.642
		c1.241,0.962,2.085,1.741,2.535,2.328c0.45,0.583,0.672,1.23,0.672,1.913c0,0.9-0.323,1.64-0.98,2.228
		c-0.658,0.589-1.435,0.881-2.329,0.881c-0.83,0-1.558-0.279-2.177-0.832c-0.621-0.546-0.928-1.273-0.928-2.167
		C138.855,33.955,139.923,32.505,142.063,30.642z M123.944,20.649c1.447-1.479,3.175-2.224,5.182-2.224
		c2.064,0,3.842,0.746,5.326,2.224c1.488,1.488,2.229,3.26,2.229,5.327c0,2.01-0.741,3.704-2.229,5.079
		c-1.483,1.38-3.261,2.068-5.326,2.068c-2.007,0-3.734-0.688-5.182-2.068c-1.444-1.375-2.169-3.068-2.169-5.079
		C121.774,23.909,122.499,22.138,123.944,20.649z M142.379,60.971c-3.724,0-6.809-1.315-9.261-3.933
		c-2.452-2.62-3.672-5.866-3.672-9.737v-6.304c2,0.136,3.253,0.497,3.771,1.078c0.522,0.597,0.781,1.955,0.781,4.097v6.005
		c0,1.515,0.223,2.428,0.673,2.738c0.45,0.315,1.809,0.465,4.081,0.465c0.837,0.281,1.526,0.417,2.075,0.417
		c0.479,0,1.108-0.136,1.867-0.417c0.617,0.351,1.206,0.516,1.762,0.516c0.824,0,1.548-0.165,2.17-0.516
		c0.624,0.281,1.245,0.417,1.867,0.417c0.896,0,1.514-0.277,1.862-0.832c0.344-0.546,0.516-1.479,0.516-2.789v-6.527
		c0-2.205,0.26-3.628,0.781-4.239c0.513-0.63,1.807-0.937,3.878-0.937v5.798c0,4.285-1.142,7.798-3.421,10.556
		C149.836,59.59,146.594,60.971,142.379,60.971z M138.132,49.164h-2.582v-2.071c0-0.894,0.483-1.344,1.448-1.344
		c0.757,0,1.134,0.45,1.134,1.344V49.164z M135.55,51.035h2.582v1.653c0,1.176-0.377,1.762-1.134,1.762
		c-0.965,0-1.448-0.586-1.448-1.762V51.035z M141.759,49.164h-2.277V46.89c0-0.759,0.379-1.142,1.14-1.142
		c0.548,0,0.88,0.094,0.982,0.264c0.104,0.17,0.155,0.539,0.155,1.081V49.164z M139.482,52.688L139.482,52.688l0.001-1.653h2.277
		v1.653c0,1.176-0.382,1.762-1.138,1.762C139.861,54.45,139.482,53.864,139.482,52.688z M145.484,49.164h-2.277v-2.071
		c0-0.894,0.385-1.344,1.141-1.344c0.557,0,0.879,0.093,0.985,0.263c0.103,0.17,0.151,0.539,0.151,1.081L145.484,49.164
		L145.484,49.164z M143.209,52.688v-1.653h2.275v1.653c0,1.176-0.45,1.762-1.344,1.762C143.521,54.45,143.208,53.864,143.209,52.688
		z M149.418,49.164h-2.377v-2.071c0-0.894,0.408-1.344,1.24-1.344c0.762,0,1.137,0.45,1.137,1.344V49.164z M147.041,51.035h2.377
		v1.653c0,1.109-0.443,1.655-1.343,1.655c-0.69,0-1.034-0.546-1.034-1.655V51.035z M136.53,70.419c0-1.42,1.152-2.57,2.571-2.57
		h4.338c1.422,0,2.571,1.151,2.571,2.57c0,1.42-1.15,2.57-2.571,2.57h-4.338C137.682,72.989,136.53,71.838,136.53,70.419z
		 M136.612,76.365c0-1.419,1.153-2.572,2.572-2.572h4.337c1.418,0,2.57,1.153,2.57,2.572c0,1.42-1.152,2.57-2.57,2.57h-4.337
		C137.764,78.935,136.611,77.784,136.612,76.365z M137.436,84.34c-0.041-1.029-0.125-2.058-0.258-3.085
		c0.456-0.717,1.252-1.196,2.165-1.196h4.338c1.42,0,2.57,1.152,2.57,2.571c0,1.42-1.15,2.573-2.57,2.573h-4.338
		C138.582,85.203,137.906,84.866,137.436,84.34z M139.714,97.989c-1.42,0-2.57-1.15-2.57-2.572c0-1.42,1.151-2.57,2.57-2.57h4.339
		c1.42,0,2.57,1.15,2.57,2.57c0,1.422-1.15,2.572-2.57,2.572H139.714z M137.384,101.523c0-1.419,1.153-2.571,2.572-2.571h4.336
		c1.422,0,2.57,1.152,2.57,2.571c0,1.418-1.148,2.57-2.57,2.57h-4.336C138.537,104.093,137.384,102.941,137.384,101.523z
		 M137.465,107.469c0-1.419,1.15-2.571,2.571-2.571h4.338c1.419,0,2.569,1.152,2.569,2.571c0,1.42-1.15,2.57-2.569,2.57h-4.338
		C138.615,110.039,137.465,108.889,137.465,107.469z M137.624,113.734c0-1.419,1.152-2.571,2.571-2.571h4.338
		c1.419,0,2.572,1.152,2.572,2.571c0,1.421-1.153,2.57-2.572,2.57h-4.338C138.776,116.304,137.624,115.155,137.624,113.734z
		 M137.787,120.323c0-1.419,1.151-2.572,2.571-2.572h4.337c1.419,0,2.57,1.153,2.57,2.572c0,1.42-1.151,2.57-2.57,2.57h-4.337
		C138.938,122.893,137.787,121.743,137.787,120.323z M136.29,64.314c0-1.419,1.15-2.571,2.57-2.571h4.339
		c1.421,0,2.57,1.152,2.57,2.571c0,1.42-1.15,2.57-2.57,2.57h-4.339C137.44,66.884,136.29,65.734,136.29,64.314z M154.072,67.823
		c5.484-0.532,26.195-1.71,29.672-1.335c3.285,0.355,5.537,4.402-0.025,4.15c-7.049-0.321-17.484-1.396-24.455,0.915
		c-3.35,1.111-4.656,3.571-6.347,5.532c-1.69,1.96-1.317,4.061,1.89,2.724c3.205-1.336,5.303-3.527,9.07-7.42
		c0.809-0.833,6.714-1.42,4.178,3.4c-1.838,3.498-8.133,9.043-14.858,8.581c-2.776-0.191-4.398,2.813-1.814,3.767
		c9.046,3.346,11.144,2.063,14.425-6.987c1.543-4.251,5.303-3.528,4.77-1.424c-1.588,6.255-4.596,18.756-17.775,14.218
		c-1.25-0.43,3.301,5.692,5.854,6.37c5.925,1.574,10.669-5.17,10.195-9.614c-0.473-4.443,2.724-10.111,3.56-3.647
		c1.272,9.817-4.286,20.821-13.658,18.457c-3.889-0.98-0.069,2.305,2.83,3.179c7.246,2.185,8.541-3.072,10.235-10.194
		c1.096-4.596,2.994,1.762,2.82,4.28c-0.263,3.839-3.301,12.163-12.49,9.975c-9.19-2.188-2.6,3.844-0.569,4.502
		c2.03,0.659,8.168,1.988,9.483-2.074c1.317-4.061,3.567-8.203,4.299-5.932c2.566,7.962-1.479,12.99-4.663,14.081
		c-3.787,1.297-10.81-0.353-14.382-5.01c-2.549-3.323-9-15.244-10.062-28.234c0.097-0.271,0.16-0.561,0.158-0.868
		c0-0.415-0.108-0.801-0.282-1.148c0.024,0.675,0.068,1.346,0.123,2.016c-0.355,0.992-1.296,1.704-2.41,1.704h-4.339
		c-1,0-1.856-0.576-2.281-1.41c0.097-0.882,0.159-1.769,0.201-2.659c0.467-0.647,1.222-1.072,2.08-1.072h4.339
		c1.004,0,1.862,0.581,2.286,1.419c0,0,0,0,0-0.001c-0.168-4.571,0.38-9.225,2.042-13.641c0.547-1.453,3.91-0.25,3.829-2.85
		C151.918,68.972,150.131,68.204,154.072,67.823z M102.602,66.173c3.366-0.122,23.182,2.538,28.414,3.458
		c3.761,0.661,1.99,1.293,1.73,3.864c-0.259,2.57,3.056,1.62,3.479,3.099c0.441,1.539,0.746,3.097,0.949,4.661
		c-0.253,0.398-0.405,0.868-0.405,1.375c0,0.659,0.256,1.254,0.664,1.71c0.046,1.128,0.041,2.255-0.012,3.378
		c-0.304,0.423-0.489,0.938-0.489,1.499c0,0.42,0.11,0.81,0.288,1.16c-1.481,13.542-9.077,25.854-11.889,29.114
		c-3.758,4.357-10.62,5.485-14.167,3.928c-2.982-1.309-6.519-6.582-3.496-14.285c0.863-2.196,2.735,2.068,3.716,6.187
		c0.981,4.118,6.97,3.242,8.967,2.735c1.997-0.505,8.751-6.007-0.232-4.5c-8.983,1.508-11.317-6.959-11.302-10.781
		c0.009-2.507,2.278-8.668,3.008-4.038c1.131,7.178,2.007,12.479,9.121,10.836c2.849-0.657,6.748-3.636,2.942-2.945
		c-9.17,1.666-13.739-9.634-11.83-19.268c1.258-6.343,3.93-0.498,3.164,3.871c-0.765,4.368,3.321,11.391,9.123,10.257
		c2.499-0.489,7.3-6.225,6.071-5.889c-12.98,3.547-14.997-9.053-16.084-15.365c-0.366-2.122,3.299-2.568,4.481,1.754
		c2.52,9.201,4.448,10.623,13.373,7.96c2.548-0.759,1.199-3.851-1.481-3.863c-6.495-0.026-12.155-5.971-13.677-9.568
		c-2.099-4.958,3.536-3.952,4.252-3.07c3.35,4.128,5.211,6.45,8.197,8.004c2.986,1.556,3.493-0.5,2.006-2.563
		c-1.488-2.063-2.569-4.594-5.712-5.936c-6.534-2.791-16.636-2.477-23.431-2.667C96.98,70.135,99.426,66.29,102.602,66.173z
		 M150.752,59.587l9.042,4.577c0.581,0.293,0.795,1.034,0.481,1.657c-0.314,0.621-1.041,0.886-1.619,0.594l-9.045-4.576
		c-0.579-0.294-0.795-1.036-0.48-1.658C149.447,59.56,150.17,59.293,150.752,59.587z M135.522,60.286
		c0.334,0.611,0.109,1.377-0.5,1.711l-9.522,5.198c-0.61,0.333-1.376,0.108-1.71-0.504c-0.334-0.611-0.11-1.378,0.502-1.711
		l9.521-5.198C134.424,59.449,135.189,59.674,135.522,60.286z M162.91,162.894c1.322-3.5-7.467-11.216-1.297-11.918
		c3.709-0.562,7.005-4.248,4.082-7.715c-2.607-2.298-2.018-3.255,2.156-4.438c5.49-1.554,4.67-9.287-4.504-11.812
		c-7.201-1.98-10.028,6.296-11.94,8.319c-4.216,4.46-10.732,1.762-14.785,1.517c-4.052-0.247-8.322-10.152-20.013-7.079
		c-10.041,2.64-1.583,15.017,1.162,13.713c3.471-1.653,5.232-2.246,4.644,1.441c-0.966,6.078,1.186,4.175,5.232,6.21
		c4.05,2.036,0.229,3.824-0.135,7.393c-1.374,13.408,15.354,10.406,15.967,3.254c0.188-2.189,1.66-3.312,3.1,0.961
		C149.478,171.358,161.112,167.659,162.91,162.894z M138.562,163.472c-0.792,1.578-2.875,2.135-4.651,1.242
		c-1.777-0.893-2.572-2.896-1.779-4.477c0.793-1.576,2.877-2.133,4.653-1.241C138.562,159.89,139.356,161.896,138.562,163.472z
		 M142.028,156.896c-0.629,0.619-3.24-1.021-5.831-3.66c-2.591-2.639-4.179-5.282-3.549-5.901s3.241,1.021,5.833,3.661
		C141.07,153.634,142.659,156.278,142.028,156.896z M147.199,156.897c-0.627-0.623,0.977-3.258,3.584-5.881
		c2.607-2.627,5.229-4.248,5.854-3.625c0.627,0.621-0.979,3.254-3.586,5.881C150.445,155.897,147.824,157.519,147.199,156.897z
		 M158.144,163.696c-0.842,1.676-2.967,2.312-4.742,1.419c-1.775-0.894-2.533-2.978-1.689-4.653
		c0.846-1.678,2.967-2.312,4.742-1.421C158.23,159.935,158.99,162.019,158.144,163.696z M138.242,126.516
		c0-1.42,1.15-2.571,2.572-2.571h4.338c1.418,0,2.568,1.151,2.568,2.571s-1.15,2.57-2.568,2.57h-4.338
		C139.392,129.086,138.242,127.936,138.242,126.516z M138.514,132.327c0-1.42,1.151-2.571,2.571-2.571h4.337
		c1.42,0,2.571,1.151,2.571,2.571s-1.151,2.57-2.571,2.57h-4.337C139.665,134.897,138.514,133.747,138.514,132.327z
		 M123.694,154.939c-7.043,6.633-10.497,40.394-7.982,42.804c3.763,3.608,2.615,7.032-0.319,5.891
		c-2.485-0.966-2.443-0.758-3.771,0.281c-2.521,1.974-6.693,1.678-5.037-3.093c0.704-2.025,3.192,0.162,3.633-5.728
		c0.293-3.921,5.768-39.271,6.449-41.391c0.682-2.12,3.121-7.248,4.431-4.039c0.519,1.272,0.102,1.575,2.317,1.339
		C125.137,150.819,126.097,152.675,123.694,154.939z M117.975,258.683c1.488-4.896-6.989-40.804-8.466-48.563
		c-1.112-5.843,3.906-5.425,4.542-3.993c0.637,1.43,1.533,2.803,3.326,2.518c1.054-0.168,1.715,1.939,1.454,3.51
		c-0.869,5.242,3.153,36.242,5.349,45.574c0.606,2.578-1.092,3.807-1.752,3.387c-0.622-0.396-1.647-1.315-2.301-0.081
		c-0.076,0.144-0.195,0.253-0.336,0.331c-0.038,0.016-0.075,0.037-0.112,0.058C118.805,261.787,117.258,261.042,117.975,258.683z
		 M128.304,267.698c-2.82-0.383-4.194-0.951-4.428,0.684c-0.359,2.523-1.6-0.036-1.21,2.74c0.225,1.605,0.379,3.161-0.862,3.686
		c-1.239,0.527-7.993-0.352-8.173-2.299c-0.471-5.119,3.613-4.482,3.166-7.304c-0.248-1.573,1.943-2.976,2.725-3.675
		c0.051-0.045,0.104-0.075,0.157-0.106c0.039-0.017,0.076-0.037,0.112-0.058c1.112-0.452,2.632,1.697,4.088,0.23
		c1.161-1.164,0.895-1.523,3.225-0.529C130.003,262.306,132.089,268.215,128.304,267.698z M113.284,273.317
		c0.36,0.302,0.508,0.738,0.33,0.971l-3.493,4.536v0.001c-0.18,0.232-0.616,0.175-0.976-0.131c-0.362-0.303-0.508-0.738-0.33-0.969
		l3.491-4.539C112.486,272.954,112.923,273.012,113.284,273.317z M111.206,279.337l3.251-4.702c0.167-0.241,0.608-0.206,0.986,0.078
		c0.378,0.282,0.549,0.706,0.382,0.947l-3.252,4.702c-0.166,0.238-0.607,0.205-0.985-0.077
		C111.21,280.001,111.04,279.577,111.206,279.337z M106.159,281.908c0.361,0.333,0.203,1.102-0.351,1.717
		c-0.552,0.617-1.294,0.847-1.653,0.515c-0.36-0.33-0.203-1.102,0.351-1.717C105.06,281.806,105.8,281.576,106.159,281.908z
		 M108.807,283.405c0.359,0.332,0.202,1.101-0.352,1.717c-0.553,0.617-1.294,0.848-1.654,0.516
		c-0.359-0.332-0.202-1.102,0.352-1.718S108.448,283.073,108.807,283.405z M112.203,283.969c0.319,0.294,0.196,0.955-0.274,1.478
		c-0.467,0.521-1.106,0.707-1.424,0.412c-0.319-0.293-0.196-0.955,0.273-1.478C111.247,283.86,111.884,283.675,112.203,283.969z
		 M106.739,281.63c-0.293-0.27-0.455-0.574-0.362-0.681l1.819-2.108c0.093-0.105,0.406,0.021,0.699,0.291
		c0.294,0.268,0.455,0.573,0.362,0.682l-1.819,2.107C107.345,282.026,107.032,281.897,106.739,281.63z M111.647,281.246
		l-1.621,2.205c-0.083,0.114-0.428-0.015-0.769-0.282c-0.343-0.27-0.552-0.579-0.469-0.691l1.62-2.205
		c0.084-0.112,0.427,0.014,0.77,0.283C111.519,280.823,111.729,281.133,111.647,281.246z M118.107,276.522l-3.103,4.811
		c-0.158,0.245-0.599,0.225-0.984-0.048c-0.384-0.272-0.567-0.693-0.409-0.938l3.102-4.812c0.16-0.245,0.6-0.223,0.984,0.049
		C118.082,275.855,118.265,276.274,118.107,276.522z M121.296,276.704l-3.292,4.673c-0.169,0.239-0.61,0.2-0.986-0.085
		s-0.543-0.711-0.376-0.949l3.291-4.673c0.17-0.237,0.611-0.2,0.986,0.084C121.296,276.041,121.463,276.466,121.296,276.704z
		 M117.07,281.896c0.304,0.281,0.23,0.867-0.166,1.307c-0.394,0.439-0.962,0.568-1.267,0.288c-0.303-0.283-0.23-0.868,0.166-1.308
		C116.198,281.742,116.767,281.614,117.07,281.896z M114.258,282.399l-1.241,1.517c-0.065,0.077-0.349-0.06-0.637-0.306
		c-0.287-0.248-0.468-0.51-0.405-0.588l1.241-1.517c0.062-0.078,0.347,0.062,0.635,0.308S114.322,282.323,114.258,282.399z
		 M186.81,78.699c9.931,16.166,13.494,32.495,14.998,36.71c1.261,3.541,6.183,4.436,4.842,7.996
		c-0.713,1.896-3.739,2.978-4.338,0.854c-0.305-1.084-2.112-1.865-2.512-0.946c-1.056,2.423-3.187,2.242-4.42,0.057
		c-1.516-2.684,1.954-2.504,1.246-6.517c-2.482-14.073-10.406-34.17-14.83-37.028c-4.246-2.747-4.771-6.242-1.626-5.967
		c2.499,0.22-0.095-3.811,3.694-2.193C186.458,72.771,184.514,74.96,186.81,78.699z M203.191,136.288
		c-3.617,9.98-4.32,28.359-3.582,37.801c0.113,1.445-0.271,3.418-2.834,1.337c-1.867-1.517-2.543,1.093-3.657,1.587
		c-0.995,0.444-3.95-2.203-0.218-5.857c4.441-4.346,2.438-33.698,2.188-39.003c-0.111-2.376,0.158-7.01,1.825-6.627
		c3.915,0.901,0.706,3.145,5.7,1.619C206.609,125.924,204.1,133.78,203.191,136.288z M193.543,181.076
		c0.309,0.687-0.314,1.2-2.578,0.704c-1.211-0.262-1.781,0.186-3.406,2.777c-0.826,1.315-2.502-1.021-1.653-2.25
		c0.987-1.429,4.382-2.484,5.647-2.617C192.308,179.612,193.234,180.39,193.543,181.076z M184.876,186.989
		c-0.81,0.531-0.678,1.322-0.844,3.099c-0.132,1.392-1.774-0.116-1.683-1.2c0.146-1.738,1.102-3.304,1.734-3.779
		c0.377-0.284,1.307,0.084,1.846,0.556C186.467,186.136,186.165,186.146,184.876,186.989z M183.6,191.921
		c0.044,0.786-0.278,1.443-0.72,1.468s-0.834-0.593-0.878-1.38c-0.044-0.785,0.278-1.443,0.72-1.468S183.557,191.134,183.6,191.921z
		 M195.189,180.487c-1.99,0.207-3.168-1.448-1.522-3.027c3.071-2.945,8.587,2.053,9.976,4.997c1.807,3.834,1.472,4.474-0.32,4.658
		c-1.791,0.187-3.227-0.065-3.754-3.229c-0.135-0.794-0.668-0.08-1.693,0.178c-0.686,0.172-1.732-0.223-2.045-1.297
		C195.695,182.308,195.652,180.439,195.189,180.487z M197.987,185.931l-0.169,6.635c-0.018,0.752-0.594,1.348-1.283,1.328
		c-0.691-0.018-1.237-0.639-1.217-1.391l0.168-6.635c0.019-0.754,0.595-1.346,1.285-1.33
		C197.462,184.558,198.006,185.179,197.987,185.931z M197.241,202.764c-0.022,0.995-0.487,1.791-1.04,1.778
		c-0.553-0.012-0.984-0.828-0.962-1.822s0.487-1.791,1.04-1.779C196.832,200.953,197.263,201.77,197.241,202.764z M197.23,195.649
		l0.175,3.699c-0.03,0.812-0.796,1.209-1.335,1.188c-0.537-0.021-0.949-0.696-0.92-1.509l0.13-3.452
		c0.03-0.813,0.491-1.455,1.03-1.437C196.85,194.161,197.26,194.835,197.23,195.649z M201.959,194.381
		c-0.559,0.206-1.209-0.165-1.451-0.828l-2.152-5.847c-0.243-0.663,0.012-1.366,0.57-1.572c0.559-0.205,1.209,0.166,1.453,0.828
		l2.15,5.848C202.771,193.474,202.517,194.175,201.959,194.381z M204.862,200.349c-0.487,0.231-1.162-0.179-1.509-0.912
		l-1.478-3.127c-0.346-0.733-0.231-1.516,0.254-1.746c0.488-0.23,1.163,0.181,1.511,0.914l1.859,3.203
		C205.848,199.415,205.35,200.12,204.862,200.349z M207.326,201.646c0.527,0.843,0.576,1.764,0.107,2.057
		c-0.467,0.293-1.274-0.152-1.803-0.995c-0.527-0.843-0.574-1.764-0.107-2.057C205.992,200.357,206.799,200.803,207.326,201.646z
		 M205.596,194.155c-0.545,0.236-1.168,0.014-1.391-0.497l-1.967-4.517c-0.223-0.513,0.041-1.119,0.585-1.355
		c0.547-0.238,1.169-0.016,1.392,0.496l1.967,4.516C206.403,193.312,206.141,193.917,205.596,194.155z M205.258,195.81
		c-0.242-0.516-0.062-1.108,0.404-1.332c0.468-0.219,1.042,0.02,1.285,0.533l1.375,2.207c0.242,0.516-0.28,1.092-0.748,1.312
		c-0.465,0.219-1.041-0.018-1.283-0.533L205.258,195.81z M210.065,199.654c0.47,0.752,0.472,1.599,0.003,1.892
		s-1.229-0.08-1.699-0.832c-0.469-0.751-0.471-1.598-0.002-1.891C208.835,198.53,209.596,198.903,210.065,199.654z M206.629,187.251
		l2.16,3.766c0.245,0.428,0.025,1.014-0.492,1.311c-0.515,0.295-1.133,0.189-1.377-0.235l-2.16-3.766
		c-0.246-0.429-0.025-1.013,0.49-1.31C205.767,186.722,206.385,186.824,206.629,187.251z M208.577,192.437
		c0.446-0.211,0.983-0.011,1.2,0.446l1.242,1.96c0.217,0.458-0.291,0.992-0.738,1.202c-0.446,0.212-0.984,0.013-1.199-0.448
		l-0.922-1.949C207.943,193.189,208.131,192.647,208.577,192.437z M212.217,198.495c-0.42,0.264-1.096-0.058-1.509-0.717
		c-0.413-0.658-0.406-1.406,0.015-1.67s1.097,0.057,1.51,0.716C212.644,197.483,212.639,198.231,212.217,198.495z M79.343,122.98
		c-1.34-3.56,3.581-4.455,4.842-7.996c1.502-4.215,5.067-20.543,14.997-36.71c2.298-3.739,0.353-5.928,2.946-7.035
		c3.789-1.618,1.194,2.413,3.693,2.194c3.146-0.276,2.622,3.22-1.626,5.966c-4.421,2.86-12.346,22.955-14.829,37.029
		c-0.708,4.012,2.76,3.834,1.245,6.517c-1.232,2.185-3.363,2.365-4.418-0.058c-0.4-0.918-2.207-0.138-2.512,0.946
		C83.082,125.958,80.058,124.875,79.343,122.98z M86.382,173.665c0.738-9.441,0.036-27.821-3.581-37.801
		c-0.908-2.507-3.419-10.365,0.578-9.144c4.995,1.525,1.784-0.72,5.701-1.621c1.666-0.383,1.937,4.251,1.825,6.627
		c-0.25,5.305-2.254,34.658,2.187,39.003c3.735,3.654,0.779,6.301-0.216,5.857c-1.116-0.494-1.79-3.104-3.657-1.586
		C86.654,177.081,86.271,175.108,86.382,173.665z M98.435,184.132c-1.625-2.589-2.193-3.04-3.405-2.775
		c-2.264,0.496-2.887-0.019-2.579-0.705c0.307-0.688,1.236-1.465,1.99-1.385c1.266,0.131,4.66,1.188,5.649,2.617
		C100.938,183.112,99.261,185.448,98.435,184.132z M101.964,189.664c-0.168-1.778-0.034-2.569-0.846-3.099
		c-1.289-0.846-1.591-0.854-1.054-1.326c0.538-0.473,1.469-0.84,1.846-0.557c0.632,0.475,1.588,2.043,1.734,3.781
		C103.735,189.547,102.093,191.056,101.964,189.664z M103.989,191.604c-0.044,0.786-0.437,1.403-0.878,1.378
		c-0.441-0.024-0.763-0.682-0.719-1.467c0.044-0.786,0.437-1.403,0.878-1.379C103.711,190.161,104.033,190.817,103.989,191.604z
		 M90.803,180.06c-0.463-0.047-0.505,1.82-0.639,2.281c-0.312,1.073-1.359,1.467-2.045,1.295c-1.026-0.258-1.559-0.971-1.692-0.176
		c-0.53,3.162-1.964,3.416-3.756,3.229c-1.79-0.186-2.127-0.823-0.32-4.658c1.388-2.945,6.905-7.941,9.975-4.996
		C93.972,178.612,92.794,180.269,90.803,180.06z M89.461,193.47c-0.691,0.018-1.266-0.576-1.285-1.328l-0.168-6.637
		c-0.02-0.751,0.524-1.373,1.215-1.391c0.69-0.018,1.265,0.576,1.285,1.328l0.168,6.636C90.694,192.829,90.15,193.452,89.461,193.47
		z M90.777,202.282c0.022,0.994-0.408,1.811-0.961,1.822s-1.019-0.784-1.041-1.779c-0.022-0.994,0.409-1.811,0.961-1.822
		S90.756,201.287,90.777,202.282z M90.713,195.149l0.129,3.453c0.031,0.812-0.382,1.487-0.919,1.506
		c-0.538,0.022-1.305-0.375-1.333-1.188l0.175-3.698c-0.031-0.812,0.381-1.486,0.919-1.507S90.683,194.337,90.713,195.149z
		 M87.637,187.28l-2.151,5.848c-0.244,0.662-0.894,1.033-1.453,0.826c-0.557-0.205-0.814-0.908-0.57-1.57l2.152-5.849
		c0.244-0.661,0.894-1.032,1.453-0.825C87.626,185.913,87.882,186.618,87.637,187.28z M84.117,195.884l-1.475,3.127
		c-0.348,0.734-1.024,1.145-1.511,0.912c-0.486-0.229-0.984-0.934-0.636-1.668l1.859-3.203c0.347-0.734,1.021-1.144,1.509-0.914
		C84.35,194.368,84.463,195.149,84.117,195.884z M80.35,202.288c-0.527,0.842-1.334,1.287-1.803,0.994s-0.42-1.213,0.107-2.057
		c0.528-0.842,1.335-1.287,1.803-0.994S80.877,201.444,80.35,202.288z M80.397,193.73c-0.545-0.24-0.807-0.845-0.585-1.357
		l1.966-4.516c0.223-0.514,0.846-0.733,1.392-0.498c0.544,0.24,0.807,0.845,0.584,1.356l-1.965,4.519
		C81.566,193.744,80.943,193.966,80.397,193.73z M80.738,195.385l-1.034,2.188c-0.243,0.512-0.819,0.75-1.285,0.531
		c-0.467-0.221-0.99-0.797-0.747-1.312l1.374-2.208c0.243-0.514,0.818-0.752,1.285-0.532
		C80.798,194.274,80.98,194.869,80.738,195.385z M77.632,198.409c0.468,0.293,0.467,1.139-0.003,1.891s-1.231,1.123-1.699,0.83
		c-0.468-0.292-0.467-1.139,0.003-1.891C76.403,198.488,77.164,198.116,77.632,198.409z M77.204,190.59l2.162-3.766
		c0.245-0.425,0.861-0.531,1.377-0.235c0.516,0.299,0.736,0.883,0.491,1.309l-2.161,3.768c-0.244,0.425-0.86,0.531-1.377,0.234
		C77.18,191.605,76.961,191.019,77.204,190.59z M74.973,194.418l1.244-1.958c0.216-0.459,0.753-0.659,1.2-0.449
		c0.447,0.211,0.632,0.754,0.416,1.213l-0.92,1.949c-0.217,0.459-0.755,0.66-1.2,0.449
		C75.267,195.411,74.758,194.876,74.973,194.418z M75.291,197.351c-0.413,0.66-1.089,0.982-1.51,0.719s-0.427-1.012-0.014-1.672
		s1.089-0.982,1.51-0.719S75.704,196.69,75.291,197.351z M175.232,203.905c-1.329-1.041-1.288-1.247-3.771-0.281
		c-2.934,1.141-4.081-2.284-0.318-5.893c2.516-2.41-0.938-36.17-7.981-42.804c-2.403-2.263-1.444-4.118,0.278-3.934
		c2.214,0.235,1.797-0.068,2.318-1.339c1.311-3.211,3.747,1.918,4.43,4.039c0.681,2.119,6.156,37.469,6.449,41.391
		c0.441,5.889,2.93,3.701,3.633,5.727C181.926,205.581,177.754,205.878,175.232,203.905z M165.051,274.798
		c-1.24-0.525-1.089-2.08-0.863-3.684c0.391-2.777-0.85-0.219-1.209-2.743c-0.235-1.632-1.61-1.065-4.428-0.683
		c-3.783,0.516-1.697-5.393,1.201-6.629c2.329-0.996,2.064-0.636,3.225,0.527c1.449,1.46,2.964-0.667,4.075-0.234
		c-0.136-0.08-0.248-0.187-0.321-0.326c-0.654-1.233-1.68-0.315-2.301,0.08c-0.66,0.422-2.358-0.808-1.754-3.388
		c2.196-9.329,6.219-40.329,5.35-45.571c-0.262-1.573,0.4-3.679,1.453-3.512c1.793,0.286,2.691-1.087,3.328-2.516
		c0.635-1.432,5.652-1.85,4.541,3.992c-1.478,7.759-9.955,43.668-8.467,48.563c0.713,2.346-0.812,3.096-1.688,2.748
		c0.048,0.029,0.096,0.055,0.142,0.097c0.782,0.698,2.973,2.103,2.725,3.674c-0.447,2.822,3.638,2.186,3.166,7.306
		C173.044,274.446,166.289,275.325,165.051,274.798z M176.734,278.815l-3.492-4.537c-0.178-0.231-0.03-0.668,0.33-0.969
		c0.361-0.306,0.797-0.363,0.977-0.133l3.491,4.539c0.179,0.233,0.032,0.666-0.329,0.969
		C177.35,278.991,176.914,279.049,176.734,278.815z M172.398,274.627l3.252,4.702c0.164,0.24-0.006,0.664-0.383,0.947
		c-0.379,0.283-0.818,0.316-0.985,0.078l-3.253-4.703c-0.166-0.24,0.005-0.664,0.383-0.947
		C171.791,274.42,172.23,274.386,172.398,274.627z M182.35,282.414c0.553,0.616,0.711,1.387,0.35,1.718
		c-0.357,0.332-1.1,0.102-1.652-0.514c-0.555-0.617-0.713-1.385-0.352-1.719C181.055,281.567,181.796,281.798,182.35,282.414z
		 M179.702,283.911c0.554,0.617,0.711,1.386,0.353,1.718c-0.36,0.332-1.101,0.101-1.654-0.515c-0.555-0.616-0.711-1.387-0.352-1.719
		S179.148,283.294,179.702,283.911z M176.079,284.373c0.467,0.522,0.59,1.185,0.271,1.478c-0.317,0.295-0.955,0.109-1.424-0.414
		c-0.469-0.521-0.592-1.182-0.273-1.476C174.971,283.665,175.609,283.851,176.079,284.373z M180.48,280.94
		c0.093,0.108-0.068,0.412-0.363,0.68c-0.293,0.271-0.605,0.398-0.699,0.292l-1.818-2.106c-0.094-0.109,0.069-0.414,0.362-0.682
		c0.293-0.27,0.606-0.396,0.699-0.292L180.48,280.94z M177.6,283.159c-0.342,0.268-0.688,0.394-0.771,0.283l-1.621-2.205
		c-0.082-0.115,0.129-0.424,0.47-0.691c0.344-0.27,0.688-0.396,0.771-0.283l1.62,2.206
		C178.152,282.581,177.941,282.892,177.6,283.159z M172.836,281.278c-0.384,0.272-0.826,0.293-0.984,0.049l-3.102-4.812
		c-0.158-0.248,0.025-0.668,0.409-0.939c0.385-0.273,0.825-0.293,0.983-0.049l3.102,4.812
		C173.404,280.585,173.221,281.005,172.836,281.278z M169.838,281.282c-0.377,0.285-0.816,0.324-0.984,0.085l-3.293-4.671
		c-0.168-0.24,0-0.666,0.377-0.951c0.375-0.285,0.815-0.324,0.986-0.086l3.291,4.674
		C170.381,280.571,170.214,280.997,169.838,281.282z M171.053,282.175c0.395,0.439,0.469,1.025,0.164,1.307s-0.871,0.15-1.267-0.289
		c-0.396-0.441-0.47-1.024-0.165-1.306C170.088,281.605,170.658,281.733,171.053,282.175z M174.476,283.601
		c-0.289,0.248-0.572,0.385-0.638,0.309l-1.241-1.516c-0.064-0.078,0.119-0.342,0.406-0.588c0.288-0.246,0.573-0.385,0.637-0.307
		l1.24,1.516C174.945,283.091,174.764,283.355,174.476,283.601z"/>
</g>
</svg>